<svg width="44" height="23" viewBox="0 0 44 23" fill="none" xmlns="http://www.w3.org/2000/svg">
<path d="M21.9997 0.333374C19.1953 0.333374 16.6448 0.816075 14.6942 1.66885C13.7188 2.09523 12.8868 2.60588 12.2465 3.26802C11.6738 3.85962 11.2563 4.61471 11.1734 5.45003C9.73171 5.82342 8.37032 6.25523 7.16283 6.7667C3.28319 8.41095 0.666748 10.8128 0.666748 13.5763C0.666748 16.3394 3.28319 18.7412 7.16283 20.3855C11.0425 22.0297 16.2664 23 22.0001 23C27.7337 23 32.9571 22.0296 36.8373 20.3855C40.717 18.7412 43.3334 16.3394 43.3334 13.5763C43.3334 10.8132 40.717 8.41138 36.8373 6.7667C35.6298 6.25521 34.2685 5.82341 32.8267 5.45003C32.7434 4.6152 32.3259 3.85961 31.7536 3.26802C31.1133 2.60634 30.2813 2.09532 29.306 1.66885C27.3554 0.816086 24.8049 0.333374 22.0005 0.333374H21.9997ZM10.6835 7.76329C10.4641 8.88228 10.1031 10.0797 9.9492 11.1681C9.9492 12.2716 10.6176 13.1477 11.4177 13.7826C12.2183 14.4176 13.2183 14.9008 14.3551 15.3063C16.6285 16.1174 19.4388 16.5855 21.9995 16.5855C24.5602 16.5855 27.371 16.1174 29.6438 15.3063C30.7802 14.9008 31.7807 14.4177 32.5812 13.7826C33.3818 13.1477 34.0497 12.2716 34.0497 11.1681C33.8329 10.027 33.5421 8.80591 33.3155 7.76329C34.0161 7.98607 34.682 8.20053 35.2925 8.45918C38.6092 9.86472 40.4327 11.6846 40.4327 13.5757C40.4327 15.4665 38.6092 17.2863 35.2925 18.6923C31.9757 20.0978 27.2471 21.0061 21.9997 21.0061C16.7522 21.0061 12.0233 20.0982 8.70688 18.6923C5.39016 17.2867 3.56663 15.4669 3.56663 13.5757C3.56663 11.685 5.39016 9.86515 8.70688 8.45918C9.31741 8.20052 9.98326 7.98607 10.6839 7.76329H10.6835Z" fill="#080808"/>
</svg>
