<svg width="49" height="48" viewBox="0 0 49 48" xmlns="http://www.w3.org/2000/svg">
<path  d="M29.8634 22.3175C34.3381 22.3175 37.9786 18.6586 37.9786 14.1588C37.9786 9.65899 34.3381 6 29.8634 6C25.3887 6 21.7482 9.65899 21.7482 14.1588C21.7478 18.6586 25.3882 22.3175 29.8634 22.3175ZM29.8569 10.5124C29.4676 10.5124 29.1525 10.1972 29.1525 9.80143C29.1525 9.40565 29.4676 9.09049 29.8569 9.09049C32.6692 9.09049 34.9624 11.3897 34.9624 14.2205C34.9624 14.6098 34.6473 14.9314 34.258 14.9314C33.8686 14.9314 33.5535 14.6163 33.5535 14.2205C33.547 12.1812 31.8966 10.5123 29.857 10.5123L29.8569 10.5124ZM11.5 25.877C11.5 29.6412 14.5472 32.7066 18.2925 32.7066C22.0382 32.7066 25.085 29.6408 25.085 25.877C25.085 22.1128 22.0378 19.0474 18.2925 19.0474C14.5472 19.047 11.5 22.1127 11.5 25.877ZM17.5819 22.3047C17.5819 21.9154 17.8971 21.5937 18.2864 21.5937C20.6659 21.5937 22.6068 23.5408 22.6068 25.9326C22.6068 26.3219 22.2917 26.6435 21.9024 26.6435C21.5131 26.6435 21.1979 26.3284 21.1979 25.9326C21.1979 24.3193 19.8938 23.0091 18.293 23.0091C17.8972 23.0151 17.582 22.6939 17.582 22.3046L17.5819 22.3047ZM31.9336 37.2191C31.9336 34.4313 29.678 32.1692 26.9088 32.1692C24.1397 32.1692 21.884 34.4374 21.884 37.2191C21.884 40.0068 24.1396 42.2689 26.9088 42.2689C29.6776 42.2689 31.9336 40.0003 31.9336 37.2191Z"/>
</svg>
