<svg width="48" height="48" viewBox="0 0 48 48" fill="none" xmlns="http://www.w3.org/2000/svg">
<g clip-path="url(#clip0_106_2411)">
<path fill-rule="evenodd" clip-rule="evenodd" d="M23.7382 10.884L24.5115 8.48732C24.8622 7.4066 25.7122 6.55663 26.7976 6.20118L29.1943 5.42796L26.7976 4.65475C25.7122 4.30397 24.8622 3.45404 24.5115 2.36861L23.7382 -0.0280762L22.965 2.36861C22.6142 3.45404 21.7643 4.30399 20.6789 4.65475L18.2822 5.42796L20.6789 6.20118C21.7643 6.55196 22.6143 7.40188 22.965 8.48732L23.7382 10.884ZM13.0043 22.2277L11.7316 26.1709L10.4588 22.2277C9.92081 20.5609 8.60985 19.25 6.94319 18.712L3 17.4346L6.94319 16.1618C8.60994 15.6238 9.92085 14.3128 10.4588 12.6462L11.7316 8.70298L13.0043 12.6462C13.5424 14.3129 14.8533 15.6238 16.52 16.1618L20.4632 17.4346L16.52 18.7073C14.8532 19.25 13.5471 20.5563 13.0043 22.2277ZM30.3854 40.9399L28.1039 48L25.8224 40.9399C24.7466 37.6018 22.1292 34.9843 18.7911 33.9086L11.7309 31.6271L18.7911 29.3456C22.1292 28.2698 24.7466 25.6524 25.8224 22.3142L28.1039 15.2541L30.3854 22.3142C31.4611 25.6524 34.0786 28.2698 37.4167 29.3456L44.4768 31.6271L37.4167 33.9086C34.0786 34.9843 31.4661 37.6021 30.3854 40.9399Z" fill="white"/>
</g>
<defs>
<clipPath id="clip0_106_2411">
<rect width="48" height="48" fill="white"/>
</clipPath>
</defs>
</svg>
