<svg width="48" height="48" viewBox="0 0 48 48" fill="none" xmlns="http://www.w3.org/2000/svg">
<path d="M23.6111 6.22784C18.9509 6.35791 14.5254 8.30194 11.2778 11.6465C8.02958 14.9911 6.21565 19.4715 6.22237 24.1332C6.22394 28.8764 8.10912 33.425 11.464 36.7784C14.8183 40.132 19.3677 42.0157 24.1112 42.0157C28.8546 42.0157 33.4037 40.132 36.7584 36.7784C40.1131 33.4251 41.9984 28.8766 42 24.1332C42.0047 20.934 41.151 17.7918 39.5279 15.0345C37.9051 12.2776 35.5725 10.0061 32.7732 8.457C29.9736 6.90794 26.81 6.13808 23.6119 6.22744L23.6111 6.22784ZM25.876 9.98499C28.1745 9.9654 30.383 10.8775 31.9987 12.5123C32.3054 12.8238 32.4911 13.2344 32.5217 13.6704C32.5518 14.1065 32.4253 14.5394 32.1648 14.89C31.9042 15.241 31.5266 15.4871 31.1003 15.5839C28.8261 16.0994 26.8978 17.598 25.8372 19.6748C25.0509 19.3708 24.1979 19.2799 23.3654 19.4115C22.5325 19.5431 21.7493 19.8926 21.095 20.4243C20.0608 18.8125 19.5593 16.916 19.6619 15.0036C19.714 14.0258 20.0486 13.0843 20.6253 12.293C21.2016 11.5016 21.9949 10.8944 22.9097 10.5448C23.857 10.1828 24.8615 9.99321 25.8758 9.98499H25.876ZM24.0201 20.9552H24.0205C24.8793 20.9302 25.7118 21.2542 26.3277 21.8532C26.9439 22.4518 27.2915 23.275 27.2907 24.1341C27.2981 24.9815 26.9663 25.7968 26.3696 26.399C25.7729 27.0007 24.9604 27.3392 24.113 27.3392C23.2652 27.3392 22.453 27.0007 21.8563 26.399C21.2593 25.7968 20.9278 24.9815 20.9353 24.1341C20.9345 23.3067 21.2565 22.5121 21.8324 21.9186C22.4087 21.3247 23.1934 20.9791 24.0205 20.9552L24.0201 20.9552ZM11.8664 21.7666H11.8668C11.882 21.7662 11.8973 21.7662 11.9122 21.7666C12.4074 21.7784 12.8764 21.9903 13.2125 22.3539C14.7957 24.0659 17.057 24.987 19.3854 24.8675C19.5151 25.7008 19.8626 26.4843 20.3926 27.1398C20.9231 27.7952 21.6169 28.2991 22.4045 28.5996C21.5269 30.3007 20.1365 31.6832 18.4303 32.551C17.5574 32.9952 16.5744 33.1762 15.6004 33.0728C14.6265 32.9694 13.7035 32.5858 12.943 31.9684C11.6612 30.9266 10.7099 29.5346 10.2057 27.9617C9.70186 26.3887 9.6666 24.7029 10.1046 23.1103C10.2112 22.7244 10.4411 22.3844 10.7593 22.1415C11.0774 21.8989 11.4664 21.7669 11.8668 21.7665L11.8664 21.7666ZM28.8353 23.3779V23.3776C30.7471 23.2878 32.6386 23.8011 34.2426 24.8448C35.0637 25.3788 35.7125 26.1396 36.1102 27.0348C36.5078 27.93 36.6371 28.9213 36.4823 29.8885C36.2218 31.5195 35.4919 33.0396 34.3821 34.2627C33.2722 35.4858 31.8301 36.3594 30.232 36.7767C29.8084 36.8879 29.3587 36.844 28.9649 36.6525C28.5712 36.4609 28.2589 36.1345 28.085 35.7326C27.9111 35.3306 27.8871 34.8797 28.0172 34.4616C28.7083 32.236 28.3761 29.8183 27.1099 27.8613C27.7677 27.3328 28.2738 26.6393 28.5767 25.8519C28.8799 25.0644 28.9689 24.2108 28.8352 23.3774L28.8353 23.3779Z" fill="white"/>
</svg>
