<svg width="309" height="309" viewBox="0 0 309 309" fill="none" xmlns="http://www.w3.org/2000/svg">
<path d="M152.232 74.5694C171.433 72.918 183.121 90.188 177.05 113.843C167.711 140.102 153.325 96.3866 158.535 97.003C159.826 97.1542 169.27 118.588 169.467 104.283C168.711 84.1755 146.266 79.9306 144.184 101.027C144.068 110.121 148.08 116.366 154.977 123.193C159.117 127.298 161.594 129.089 166.676 133.171C180.457 144.266 185.784 155.047 184.563 169.095C183.795 178.05 179.922 184.772 178.655 184.004C177.259 183.155 181.83 174.166 179.527 164.815C177.178 155.256 169.84 148.115 162.187 142.463C147.534 131.624 143.58 127.624 137.951 118.146C127.438 100.457 136.358 75.9184 152.197 74.5461L152.232 74.5694Z" fill="#E096CB"/>
<path d="M156.396 249.526C161.722 215.951 178.271 174.922 160.292 156.279C151.104 146.755 134.02 148.918 125.158 159.431C115.401 170.979 111.796 178.55 105.12 197.297C100.515 210.799 100.469 219.219 105.434 223.115C111.494 225.511 130.159 213.404 139.649 207.264C139.695 207.24 139.73 207.217 139.777 207.194C148.127 201.705 150.139 198.053 139.195 203.286C128.484 208.101 115.075 211.346 116.099 205.135C118.541 193.552 125.961 179.527 130.124 173.573C134.462 166.653 146.917 160.559 153.674 169.107C165.641 184.26 150.348 210.892 147.022 260.83C146.603 268.145 149.546 273.727 152.011 272.087L156.407 249.526H156.396Z" fill="#E096CB"/>
<path d="M171.165 50.8449C171.561 56.3341 166.165 60.0323 161.757 61.4977C154.5 63.905 146.976 63.905 139.754 61.8466C128.891 58.4623 127.647 51.0426 138.125 45.7511C145.929 42.018 157.628 40.4596 165.723 44.3556C168.153 45.5418 171.049 47.6584 171.165 50.8449ZM162.932 51.6357C162.908 51.6939 162.932 51.752 162.99 51.7288C163.571 50.2634 159.826 48.9725 158.489 48.5539C152.558 46.8443 145.51 47.1467 139.626 49.1935C131.299 52.1591 131.45 57.625 140.451 58.7182C146.673 59.4276 153.581 58.0437 159.012 55.1828C160.664 54.2408 162.292 53.2174 162.99 51.752C163.059 51.5543 162.99 51.4496 162.92 51.6473L162.932 51.6357Z" fill="#E096CB"/>
<path d="M150.592 297.522C150.592 297.522 152.639 264.772 159.094 235.396L150.069 233.919C150.069 233.919 145.475 257.643 145.44 272.367C145.406 288.078 149.906 307.023 150.581 297.522H150.592Z" fill="#E096CB"/>
<path d="M56.369 132.578C67.7893 133.776 76.8604 142.847 78.0583 154.267C79.2561 142.847 88.3273 133.776 99.7476 132.578C88.3273 131.38 79.2561 122.309 78.0583 110.889C76.8604 122.309 67.7893 131.38 56.369 132.578Z" fill="#E096CB"/>
<path d="M78.0583 105.725C78.0815 105.504 78.1164 105.283 78.1397 105.062L77.942 104.865C77.9768 105.144 78.0234 105.434 78.0466 105.714L78.0583 105.725Z" fill="#E096CB"/>
<path d="M104.911 132.578C105.051 132.59 105.19 132.613 105.33 132.636L105.458 132.508C105.283 132.532 105.097 132.555 104.923 132.578H104.911Z" fill="#E096CB"/>
<path d="M78.0583 159.431C78.035 159.617 78.0117 159.791 77.9885 159.966L78.1164 159.838C78.1048 159.698 78.0815 159.559 78.0583 159.419V159.431Z" fill="#E096CB"/>
<path d="M50.3448 132.473L50.5425 132.671C50.7635 132.636 50.9844 132.613 51.2054 132.59C50.9146 132.555 50.6355 132.52 50.3564 132.485L50.3448 132.473Z" fill="#E096CB"/>
<path d="M195.564 205.589C201.507 206.217 206.217 210.927 206.845 216.87C207.473 210.927 212.183 206.217 218.126 205.589C212.183 204.961 207.473 200.251 206.845 194.308C206.217 200.251 201.507 204.961 195.564 205.589Z" fill="#E096CB"/>
<path d="M206.845 191.633C206.857 191.517 206.868 191.401 206.892 191.296L206.787 191.192C206.81 191.343 206.833 191.482 206.845 191.633Z" fill="#E096CB"/>
<path d="M220.801 205.589C220.87 205.589 220.94 205.612 221.022 205.612L221.08 205.542C220.987 205.554 220.894 205.566 220.801 205.577V205.589Z" fill="#E096CB"/>
<path d="M206.845 219.556C206.845 219.649 206.822 219.742 206.81 219.835L206.868 219.766C206.868 219.696 206.845 219.626 206.845 219.545V219.556Z" fill="#E096CB"/>
<path d="M192.436 205.531L192.541 205.636C192.657 205.624 192.773 205.601 192.878 205.589C192.727 205.577 192.587 205.554 192.436 205.531Z" fill="#E096CB"/>
<path d="M215.939 99.1312C223.324 99.9104 229.186 105.772 229.965 113.157C230.744 105.772 236.605 99.9104 243.99 99.1312C236.605 98.352 230.744 92.4907 229.965 85.1058C229.186 92.4907 223.324 98.352 215.939 99.1312Z" fill="#E096CB"/>
<path d="M229.953 81.7681C229.965 81.6285 229.988 81.489 230.011 81.3378L229.883 81.2098C229.907 81.3959 229.93 81.5704 229.953 81.7564V81.7681Z" fill="#E096CB"/>
<path d="M247.316 99.1311C247.409 99.1311 247.491 99.1544 247.584 99.166L247.665 99.0846C247.549 99.0962 247.433 99.1195 247.316 99.1311Z" fill="#E096CB"/>
<path d="M229.953 116.483C229.942 116.599 229.918 116.715 229.907 116.831L229.988 116.75C229.988 116.657 229.965 116.576 229.953 116.483Z" fill="#E096CB"/>
<path d="M212.044 99.0497L212.171 99.1776C212.311 99.1544 212.451 99.1427 212.602 99.1195C212.416 99.0962 212.23 99.0729 212.055 99.0497H212.044Z" fill="#E096CB"/>
<path d="M18.0118 152.2C18.3533 82.5193 73.8924 22.0931 143.399 16.5826C193.273 11.7669 244.043 37.1525 270.105 79.823C278.808 93.7521 284.908 109.259 287.982 125.308C288.088 125.873 287.723 126.414 287.157 126.52C286.604 126.626 286.074 126.273 285.944 125.72C279.067 94.3761 260.13 66.0351 234.056 47.514C181.555 9.18831 105.277 17.8072 62.8929 67.0242C42.319 90.314 31.0251 121.245 31.5432 152.212C31.4255 161.219 18.1413 161.314 18 152.188L18.0118 152.2Z" fill="#E096CB"/>
<path fill-rule="evenodd" clip-rule="evenodd" d="M166.956 290.512C237.549 285.696 294.578 225.046 295.698 154.398L295.71 154.41C295.668 145.156 282.186 145.104 281.967 154.236C282.149 185.639 270.345 216.876 249.209 240.262C225.395 267.288 191.435 281.897 156.904 283.142L155.622 290.974C159.396 290.987 163.178 290.834 166.956 290.512ZM139.612 289.94C98.6154 284.781 60.3663 260.674 39.0824 224.983C30.4056 210.763 24.3873 194.973 21.4464 178.667C21.3451 178.093 21.7216 177.547 22.2964 177.446C22.8592 177.345 23.3931 177.709 23.5184 178.272C30.1496 210.128 49.0515 239.074 75.3043 258.142C94.1227 272.187 116.066 280.23 138.49 282.533L139.612 289.94Z" fill="#E096CB"/>
</svg>
