<svg width="48" height="48" viewBox="0 0 48 48" fill="none" xmlns="http://www.w3.org/2000/svg">
<g clip-path="url(#clip0_146_149)">
<path d="M12 22H4C2.9 22 2 22.9 2 24C2 25.1 2.9 26 4 26H12C13.1 26 14 25.1 14 24C14 22.9 13.1 22 12 22ZM16.94 14.12L15.5 12.68C14.72 11.9 13.46 11.9 12.68 12.68C11.9 13.46 11.9 14.72 12.68 15.5L14.1 16.92C14.88 17.7 16.14 17.7 16.92 16.92C17.7 16.16 17.7 14.88 16.94 14.12ZM24 2C22.88 2 22 2.9 22 4V12C22 13.1 22.9 14 24 14C25.1 14 26 13.1 26 12V4C26 2.9 25.1 2 24 2ZM35.32 12.7C34.54 11.92 33.28 11.92 32.5 12.7L31.08 14.12C30.3 14.9 30.3 16.16 31.08 16.94C31.86 17.72 33.12 17.72 33.9 16.94L35.32 15.52C36.08 14.74 36.08 13.46 35.32 12.7ZM34 24C34 25.12 34.9 26 36 26H44C45.1 26 46 25.1 46 24C46 22.9 45.1 22 44 22H36C34.9 22 34 22.9 34 24ZM24 18C20.68 18 18 20.68 18 24C18 27.32 20.68 30 24 30C27.32 30 30 27.32 30 24C30 20.68 27.32 18 24 18ZM31.06 33.88L32.48 35.3C33.26 36.08 34.52 36.08 35.3 35.3C36.08 34.52 36.08 33.26 35.3 32.48L33.88 31.06C33.1 30.28 31.84 30.28 31.06 31.06C30.3 31.84 30.3 33.12 31.06 33.88ZM12.68 35.3C13.46 36.08 14.72 36.08 15.5 35.3L16.92 33.88C17.7 33.1 17.7 31.84 16.92 31.06C16.14 30.28 14.88 30.28 14.1 31.06L12.68 32.48C11.92 33.26 11.92 34.54 12.68 35.3ZM24 46C25.12 46 26 45.1 26 44V36C26 34.9 25.1 34 24 34C22.9 34 22 34.9 22 36V44C22 45.1 22.9 46 24 46Z" fill="white"/>
</g>
<defs>
<clipPath id="clip0_146_149">
<rect width="48" height="48" fill="white"/>
</clipPath>
</defs>
</svg>
