<svg width="48" height="48" viewBox="0 0 48 48" fill="none" xmlns="http://www.w3.org/2000/svg">
<path d="M35.8815 15.1204C35.5538 13.4017 34.6377 11.8509 33.2911 10.7339C31.9443 9.61714 30.2507 9.00414 28.5011 9.00009C27.0553 9.00587 25.6424 9.43329 24.4358 10.2301C21.7138 8.78215 18.493 8.60355 15.6275 9.74169C12.7621 10.8798 10.5416 13.2196 9.55493 16.1405C7.69182 17.2904 6.42532 19.1977 6.08857 21.3612C5.75206 23.5244 6.37888 25.7266 7.80433 27.3883C9.22975 29.0501 11.3109 30.0046 13.5002 30.0011H34.501C37.0168 29.9999 39.3643 28.7382 40.7536 26.641C42.1431 24.5438 42.3892 21.8901 41.4093 19.573C40.4292 17.2558 38.3536 15.584 35.8812 15.1202L35.8815 15.1204Z" fill="white"/>
<path d="M31.4571 39.0001C30.9312 39.0001 30.4051 38.9797 29.882 38.9386C27.6479 38.7603 25.4588 38.2128 23.4036 37.3185C21.6517 36.5568 19.7856 36.0905 17.881 35.9386C15.0459 35.7206 12.2002 36.1955 9.58959 37.3223C9.09662 37.5332 8.52881 37.4652 8.09987 37.144C7.67069 36.8225 7.44567 36.2969 7.50947 35.7645C7.573 35.2324 7.91579 34.7746 8.40849 34.5636C11.4675 33.2499 14.7987 32.6954 18.1181 32.947C20.3519 33.1261 22.541 33.6736 24.5959 34.5673C26.348 35.329 28.2142 35.7954 30.1187 35.9473C32.9538 36.163 35.7988 35.6884 38.4101 34.5636C38.9028 34.3526 39.4706 34.4207 39.8998 34.7419C40.3288 35.0633 40.5541 35.589 40.4902 36.1211C40.4265 36.6535 40.0837 37.1113 39.591 37.3223C37.0204 38.4247 34.2535 38.9955 31.4564 39.0001H31.4571Z" fill="white"/>
</svg>
